<?xml version="1.0" standalone="no"?>
<!DOCTYPE svg PUBLIC "-//W3C//DTD SVG 20010904//EN"
 "http://www.w3.org/TR/2001/REC-SVG-20010904/DTD/svg10.dtd">
<svg version="1.0" xmlns="http://www.w3.org/2000/svg"
 width="1086.000000pt" height="1146.000000pt" viewBox="0 0 1086.000000 1146.000000"
 preserveAspectRatio="xMidYMid meet">

<g transform="translate(0.000000,1146.000000) scale(0.100000,-0.100000)"
fill="#000000" stroke="none">
<path d="M5337 11450 c-103 -26 -208 -114 -253 -213 -26 -55 -29 -73 -29 -162
0 -90 3 -106 29 -160 38 -76 105 -143 181 -181 55 -26 69 -29 165 -29 95 0
111 3 162 28 77 38 144 107 182 187 28 58 31 75 31 160 0 82 -4 103 -27 152
-37 79 -108 152 -183 189 -50 24 -79 32 -141 35 -44 2 -96 -1 -117 -6z"/>
<path d="M6153 11065 c-28 -19 -38 -68 -23 -105 12 -29 43 -48 115 -70 139
-43 413 -199 560 -320 94 -77 257 -248 326 -340 60 -81 159 -239 159 -253 0
-5 -18 7 -41 28 -57 51 -194 139 -273 174 -403 181 -874 136 -1236 -120 -86
-61 -235 -201 -275 -259 -15 -22 -30 -40 -34 -40 -3 1 -31 33 -61 73 -30 39
-107 123 -170 187 -539 540 -1310 758 -2042 578 -70 -17 -141 -39 -157 -49
-54 -33 -53 -102 2 -143 27 -20 28 -20 90 -3 410 116 778 114 1159 -3 93 -29
256 -94 270 -108 4 -4 -46 -6 -110 -4 -420 12 -808 -191 -1049 -548 -51 -75
-119 -219 -151 -320 -32 -99 -62 -273 -62 -355 0 -37 -3 -46 -15 -42 -47 19
-278 69 -380 83 -168 23 -523 15 -680 -15 -450 -85 -824 -280 -1136 -590 -137
-137 -229 -256 -229 -299 0 -47 37 -82 89 -82 38 0 43 4 114 93 232 287 539
505 881 626 100 35 283 84 298 79 6 -2 -12 -17 -38 -34 -258 -161 -450 -427
-531 -733 -35 -130 -44 -390 -19 -525 33 -175 94 -333 180 -466 26 -40 45 -74
42 -77 -2 -3 -60 -27 -128 -55 -569 -228 -1009 -671 -1232 -1237 -80 -203
-136 -487 -136 -691 0 -105 1 -109 26 -129 38 -30 80 -27 115 8 27 28 29 34
29 110 0 179 52 444 124 631 47 121 133 286 205 395 58 88 210 279 217 272 2
-2 -12 -46 -31 -99 -187 -525 -1 -1097 467 -1431 77 -55 217 -129 291 -153 29
-9 53 -18 55 -19 2 -2 -19 -36 -46 -76 -484 -725 -495 -1680 -26 -2389 66
-101 77 -110 123 -110 40 1 62 14 80 48 18 34 9 59 -55 154 -168 250 -282 576
-315 898 -12 123 -6 391 10 431 7 17 10 19 10 7 2 -38 66 -217 106 -298 147
-291 412 -516 723 -614 229 -72 521 -76 746 -10 27 8 51 14 53 14 2 0 3 -29 3
-65 0 -95 18 -242 46 -382 124 -624 527 -1172 1084 -1476 116 -63 327 -147
371 -147 47 0 83 37 83 85 0 49 -22 67 -145 114 -354 137 -650 363 -874 666
-49 66 -114 168 -145 225 -15 28 -21 32 72 -43 310 -248 754 -323 1145 -192
122 41 201 79 311 152 82 54 228 189 293 271 l35 43 82 -100 c539 -652 1388
-939 2192 -740 153 38 175 49 190 94 14 42 -2 82 -42 104 -24 14 -34 13 -120
-11 -444 -127 -917 -95 -1328 88 l-75 33 131 1 c359 1 635 116 884 369 218
222 329 463 361 781 6 63 12 116 12 117 1 1 43 -10 92 -23 768 -207 1573 2
2120 551 112 112 225 256 225 286 0 33 -29 78 -54 85 -56 14 -78 1 -140 -76
-85 -106 -257 -276 -353 -348 -163 -123 -354 -226 -539 -292 -90 -31 -271 -80
-299 -80 -9 0 24 27 73 60 281 187 477 506 523 847 16 119 6 344 -20 449 -40
160 -100 302 -178 420 -20 30 -33 57 -30 60 3 3 61 28 129 56 423 170 783 465
1031 848 199 308 316 666 334 1021 7 149 2 174 -37 194 -41 21 -64 19 -99 -11
-29 -24 -31 -31 -31 -90 0 -309 -109 -686 -280 -969 -86 -143 -284 -394 -267
-339 3 10 20 59 36 107 85 242 82 555 -5 799 -83 231 -234 434 -434 584 -86
65 -233 146 -325 179 -27 10 -51 19 -53 21 -2 1 25 44 58 95 78 119 188 344
233 475 160 464 165 954 13 1409 -69 206 -184 432 -283 553 -30 37 -39 42 -74
42 -49 0 -89 -35 -89 -77 0 -18 24 -65 64 -126 180 -275 287 -590 316 -932 11
-123 6 -312 -9 -387 -6 -30 -8 -26 -30 52 -126 461 -511 805 -990 885 -172 29
-480 9 -602 -40 -14 -5 -17 9 -23 107 -33 539 -237 1017 -596 1401 -204 219
-500 415 -782 521 -106 39 -142 44 -175 21z m-1603 -959 c171 -28 358 -106
492 -207 79 -59 205 -189 253 -262 l37 -55 -16 -64 c-24 -93 -125 -290 -200
-389 -324 -428 -886 -602 -1395 -433 -125 42 -327 152 -385 209 -13 13 -16 38
-16 114 0 288 109 563 304 768 239 253 591 374 926 319z m2046 3 c534 -74 934
-536 934 -1080 0 -94 0 -95 -32 -126 -108 -101 -347 -210 -545 -250 -118 -23
-356 -23 -468 1 -453 98 -803 407 -951 840 l-24 70 42 65 c62 95 208 239 311
306 227 147 486 209 733 174z m-1132 -886 c119 -244 394 -510 649 -628 160
-74 337 -119 512 -132 88 -6 89 -7 56 -20 -55 -23 -208 -62 -331 -84 -82 -15
-173 -23 -321 -26 -245 -6 -403 10 -609 64 -195 51 -194 51 -230 15 -34 -34
-39 -74 -15 -109 27 -38 274 -103 510 -134 128 -17 457 -14 590 4 373 52 754
192 1048 386 l108 71 -8 -72 c-4 -40 -8 -145 -7 -233 0 -127 5 -181 23 -264
61 -279 173 -490 368 -692 57 -59 119 -117 138 -130 19 -13 35 -27 35 -31 0
-16 -204 63 -350 137 -296 148 -553 353 -742 590 -97 121 -112 135 -150 135
-37 0 -88 -48 -88 -83 0 -67 246 -345 451 -509 408 -328 913 -522 1422 -545
75 -3 137 -8 137 -10 0 -3 -31 -39 -68 -81 -223 -249 -342 -519 -372 -842 -15
-156 4 -364 45 -503 8 -29 10 -45 4 -41 -25 15 -157 230 -220 359 -145 297
-215 567 -235 910 -8 143 -20 165 -90 165 -85 0 -97 -49 -73 -300 44 -478 231
-937 536 -1315 91 -113 318 -337 411 -405 34 -25 61 -48 62 -51 0 -3 -42 -13
-92 -23 -468 -88 -858 -402 -1043 -838 -23 -54 -45 -102 -49 -105 -7 -8 1 163
15 292 37 350 166 706 365 1007 72 109 80 143 39 183 -36 37 -88 34 -126 -6
-79 -84 -243 -389 -314 -583 -172 -467 -197 -1013 -69 -1491 14 -55 29 -109
31 -121 4 -19 -2 -18 -76 18 -325 155 -723 181 -1061 67 -100 -33 -255 -108
-330 -158 -24 -17 -46 -28 -48 -26 -8 7 127 173 216 267 110 115 248 231 382
320 123 82 355 200 488 247 98 36 122 56 122 104 0 36 -49 87 -84 87 -56 0
-317 -111 -476 -202 -528 -303 -908 -768 -1126 -1377 -2 -8 -26 23 -55 75 -73
127 -149 226 -253 329 -239 236 -545 372 -901 403 l-90 8 70 21 c258 80 384
97 685 97 279 0 384 -13 608 -75 124 -35 133 -35 168 -5 36 30 38 84 5 120
-34 36 -250 92 -466 121 -159 22 -461 22 -620 0 -392 -52 -750 -185 -1069
-396 -49 -32 -90 -58 -92 -56 -1 1 2 25 8 52 6 28 11 129 11 225 1 143 -3 194
-21 276 -42 197 -110 358 -216 518 -63 94 -199 243 -281 306 -30 23 -54 45
-51 47 8 9 206 -71 341 -137 312 -152 581 -370 794 -643 29 -37 61 -72 71 -77
54 -29 124 12 124 73 0 46 -77 148 -234 311 -203 210 -409 360 -675 491 -310
154 -717 255 -1022 255 -46 0 -83 3 -83 6 0 4 36 44 79 90 186 197 311 453
357 734 24 143 14 411 -19 545 -14 55 -24 101 -22 103 5 5 91 -121 148 -220
184 -312 307 -732 307 -1044 0 -100 12 -149 40 -164 30 -16 86 -11 111 9 23
19 24 25 22 134 -6 453 -164 928 -438 1322 -135 193 -330 401 -504 536 l-81
63 109 22 c279 56 511 176 708 367 155 150 274 327 347 518 l25 64 1 -102 c0
-195 -47 -465 -121 -681 -52 -153 -161 -377 -249 -511 -78 -119 -87 -157 -48
-198 21 -23 67 -30 103 -17 20 8 113 145 184 271 147 261 255 606 290 925 14
122 14 414 1 533 -14 124 -46 292 -77 403 -14 51 -23 95 -20 98 3 3 33 -9 67
-26 75 -38 238 -93 340 -115 41 -9 145 -19 230 -22 225 -8 400 22 591 102 79
33 194 94 264 140 37 25 32 16 -54 -95 -83 -108 -261 -286 -371 -371 -193
-150 -389 -261 -610 -346 -63 -24 -123 -53 -132 -64 -43 -51 -4 -139 62 -139
41 0 225 72 375 148 381 191 736 515 971 889 75 118 184 340 225 457 19 53 36
96 39 96 3 0 18 -26 34 -57z m-2573 -328 c52 -7 135 -27 185 -42 80 -26 91
-32 106 -63 70 -143 99 -446 63 -656 -103 -587 -628 -1034 -1214 -1034 l-96 0
-55 75 c-147 200 -220 421 -220 668 1 463 287 860 728 1007 169 57 332 71 503
45z m5426 -10 c165 -31 325 -102 461 -205 185 -139 321 -346 383 -583 33 -125
38 -340 10 -475 -34 -165 -104 -322 -199 -449 -26 -34 -56 -64 -67 -67 -63
-17 -275 5 -411 43 -331 93 -629 340 -783 649 -110 219 -154 496 -117 737 17
113 54 252 72 270 18 17 152 62 240 79 95 19 313 20 411 1z m-6376 -1997 c144
-97 311 -298 398 -481 139 -292 158 -628 55 -935 -35 -106 -114 -256 -183
-349 -93 -125 -290 -303 -334 -303 -29 0 -173 53 -252 93 -280 140 -478 377
-572 682 -25 85 -27 101 -27 280 0 178 2 196 27 280 92 305 291 545 569 686
79 40 210 88 239 89 9 0 45 -19 80 -42z m7133 11 c283 -94 510 -289 641 -549
88 -176 121 -330 112 -528 -12 -263 -109 -490 -294 -682 -133 -140 -286 -238
-461 -295 -78 -26 -86 -27 -115 -13 -100 48 -260 204 -351 342 -150 226 -216
443 -216 707 0 323 117 619 337 850 87 92 216 199 240 199 8 0 56 -14 107 -31z
m-6885 -2265 c265 -39 532 -173 716 -359 91 -93 158 -186 219 -305 104 -203
141 -357 139 -585 0 -153 -11 -223 -55 -372 l-21 -73 -56 -21 c-420 -158 -891
-53 -1188 265 -255 272 -349 664 -248 1024 47 164 191 417 248 434 40 11 137
8 246 -8z m6761 -35 c92 -117 169 -276 211 -435 21 -77 24 -111 23 -259 -1
-141 -4 -183 -22 -248 -126 -458 -474 -757 -943 -809 -159 -18 -366 10 -502
67 -45 19 -66 59 -97 182 -137 556 124 1141 628 1406 112 59 196 90 313 116
126 28 129 28 246 30 l103 1 40 -51z m-4592 -1504 c436 -84 803 -403 953 -829
32 -91 36 -76 -58 -203 -96 -128 -231 -239 -390 -318 -532 -264 -1160 -51
-1428 484 -86 172 -123 346 -116 552 1 44 3 48 64 92 137 103 372 202 537 226
41 6 86 13 100 15 48 9 256 -3 338 -19z m2632 -4 c161 -37 319 -105 450 -193
36 -24 71 -55 77 -69 15 -29 16 -127 3 -237 -39 -306 -218 -607 -458 -771
-375 -254 -840 -252 -1224 6 -130 88 -318 295 -318 352 0 12 9 50 21 84 148
441 535 766 1004 843 109 18 334 11 445 -15z"/>
<path d="M4650 9869 c-146 -58 -182 -250 -67 -356 77 -71 171 -82 261 -29 147
86 131 315 -26 381 -42 17 -130 19 -168 4z"/>
<path d="M7040 9561 c-104 -32 -162 -108 -162 -211 0 -198 236 -291 370 -146
82 89 82 203 0 292 -55 60 -139 86 -208 65z"/>
<path d="M2545 8731 c-208 -96 -139 -411 90 -411 120 0 215 95 215 215 0 157
-164 262 -305 196z"/>
<path d="M8725 7901 c-208 -96 -139 -411 90 -411 233 0 298 325 83 414 -50 21
-124 20 -173 -3z"/>
<path d="M1499 6577 c-127 -67 -148 -252 -39 -351 66 -60 152 -71 235 -32 59
27 77 46 104 106 48 106 5 227 -100 281 -55 27 -143 26 -200 -4z"/>
<path d="M9172 5567 c-86 -32 -141 -111 -142 -204 0 -125 87 -213 214 -213
149 0 252 141 205 281 -38 112 -167 175 -277 136z"/>
<path d="M1945 4241 c-210 -95 -146 -411 83 -411 89 0 155 38 193 112 57 112
19 235 -90 291 -65 32 -127 35 -186 8z"/>
<path d="M8130 3414 c-174 -76 -173 -325 2 -398 83 -35 189 -10 245 58 91 111
57 273 -70 335 -51 25 -126 27 -177 5z"/>
<path d="M3702 2611 c-57 -15 -108 -56 -136 -112 -35 -71 -34 -129 2 -200 74
-146 278 -155 370 -17 23 36 27 51 27 118 0 67 -4 82 -27 118 -48 72 -152 113
-236 93z"/>
<path d="M6024 2276 c-165 -77 -165 -303 0 -388 58 -30 159 -23 213 15 115 79
124 252 20 344 -65 57 -150 68 -233 29z"/>
<path d="M5280 10544 c-133 -6 -378 -25 -405 -32 -26 -7 -25 -9 43 -54 154
-103 350 -279 480 -431 l33 -39 75 76 c193 194 458 338 712 387 34 6 61 13 59
15 -7 8 -363 54 -482 63 -153 12 -409 19 -515 15z"/>
<path d="M2277 10460 c-103 -26 -208 -114 -253 -213 -26 -55 -29 -73 -29 -162
0 -90 3 -106 29 -160 38 -76 105 -143 181 -181 55 -26 69 -29 165 -29 95 0
111 3 162 28 79 39 143 104 181 185 29 61 32 76 32 162 0 88 -3 101 -33 162
-41 84 -120 158 -200 189 -64 24 -176 33 -235 19z"/>
<path d="M8373 10446 c-104 -34 -185 -106 -232 -205 -23 -49 -26 -68 -26 -161
0 -93 3 -112 27 -162 35 -75 104 -142 186 -181 60 -29 76 -32 157 -32 146 1
249 56 324 173 121 189 43 455 -161 547 -75 34 -205 44 -275 21z"/>
<path d="M3282 10025 c-378 -198 -674 -404 -1010 -702 l-44 -38 179 -1 c192
-1 303 -12 482 -50 63 -13 118 -21 122 -18 5 3 9 19 9 36 0 51 39 223 71 315
60 170 156 332 269 456 34 37 58 67 53 67 -4 0 -64 -30 -131 -65z"/>
<path d="M7722 9844 c61 -180 98 -355 117 -547 5 -48 11 -90 13 -93 3 -2 47 3
99 12 104 19 338 22 429 6 31 -6 64 -6 77 -1 16 6 21 5 17 -4 -3 -8 24 -19 78
-33 46 -12 126 -40 178 -62 l95 -41 -135 131 c-277 268 -571 494 -888 681 -62
37 -114 67 -116 67 -2 0 14 -52 36 -116z"/>
<path d="M1256 7983 c-174 -349 -305 -713 -387 -1079 -16 -72 -29 -135 -29
-139 0 -3 12 3 28 14 184 142 352 245 527 323 60 27 111 50 112 52 2 2 -18 46
-45 97 -55 109 -103 247 -127 369 -10 47 -24 96 -32 109 -8 13 -10 20 -4 17 8
-5 11 33 12 131 0 76 4 159 8 186 4 26 6 47 4 47 -1 0 -32 -57 -67 -127z"/>
<path d="M375 7856 c-152 -48 -253 -164 -275 -314 -23 -165 66 -329 218 -400
50 -24 70 -27 157 -27 89 0 107 3 163 29 80 37 161 122 193 203 17 43 23 80
23 143 1 75 -3 93 -30 150 -37 79 -79 128 -142 168 -90 57 -216 77 -307 48z"/>
<path d="M10286 7850 c-63 -16 -155 -71 -193 -114 -168 -196 -115 -481 111
-599 57 -30 68 -32 166 -32 93 0 112 3 162 27 294 137 296 552 3 689 -71 34
-179 46 -249 29z"/>
<path d="M9647 7840 c-3 -8 -19 -62 -37 -118 -45 -149 -121 -322 -201 -463
-39 -67 -69 -122 -67 -124 2 -1 35 -16 73 -34 160 -74 361 -233 475 -376 27
-34 75 -103 106 -151 l56 -89 -6 55 c-39 310 -155 741 -290 1079 -75 186 -102
242 -109 221z"/>
<path d="M795 5245 c83 -508 169 -818 338 -1215 61 -142 62 -144 71 -110 51
191 167 465 265 624 23 37 41 69 39 70 -313 143 -512 321 -697 626 l-21 35 5
-30z"/>
<path d="M9944 4944 c-148 -117 -420 -274 -565 -329 l-47 -17 45 -83 c124
-234 186 -553 155 -795 -5 -41 -8 -76 -7 -78 4 -4 153 304 198 410 61 142 128
328 177 490 42 140 114 437 107 444 -2 2 -30 -17 -63 -42z"/>
<path d="M351 4634 c-205 -74 -311 -300 -234 -497 82 -207 317 -303 516 -209
75 35 148 106 185 181 24 50 27 67 27 161 0 99 -2 110 -32 171 -39 79 -102
140 -181 177 -72 34 -211 42 -281 16z"/>
<path d="M10250 4622 c-107 -40 -177 -103 -224 -202 -28 -59 -31 -74 -31 -160
0 -87 3 -101 32 -161 39 -80 111 -150 191 -187 49 -23 70 -27 152 -27 83 0
103 4 156 28 36 17 82 49 112 80 198 201 122 535 -143 628 -68 24 -182 24
-245 1z"/>
<path d="M2115 2580 c202 -206 498 -448 751 -613 119 -77 285 -177 295 -177 3
0 -15 59 -39 130 -56 170 -88 312 -108 485 -9 77 -17 141 -19 143 -1 1 -44 -5
-96 -14 -259 -46 -596 0 -824 113 l-50 25 90 -92z"/>
<path d="M7830 2509 c0 -47 -37 -217 -66 -305 -57 -171 -163 -354 -279 -481
-31 -35 -53 -63 -48 -63 15 0 343 180 451 247 219 136 473 327 674 508 l56 50
-186 1 c-193 1 -339 17 -500 54 -46 11 -88 20 -93 20 -5 0 -9 -14 -9 -31z"/>
<path d="M2259 2037 c-104 -30 -199 -112 -247 -215 -23 -49 -27 -70 -27 -152
0 -86 3 -101 32 -162 38 -81 103 -147 181 -184 79 -38 202 -45 285 -16 213 76
315 313 222 519 -34 76 -112 153 -191 190 -67 30 -185 40 -255 20z"/>
<path d="M8353 2022 c-101 -36 -176 -104 -222 -202 -23 -48 -26 -68 -26 -160
0 -95 3 -111 28 -162 39 -79 104 -143 185 -181 60 -28 76 -32 157 -32 123 1
189 27 271 109 68 68 100 137 111 236 15 152 -77 311 -220 376 -81 37 -204 44
-284 16z"/>
<path d="M5345 1689 c-87 -87 -213 -184 -322 -245 -46 -26 -88 -54 -93 -63 -5
-9 -10 -11 -10 -4 0 8 -22 4 -67 -14 -38 -14 -117 -38 -178 -53 l-109 -27 139
-21 c246 -39 304 -43 625 -49 287 -5 501 3 633 24 l37 6 -77 53 c-157 108
-289 224 -433 382 l-76 82 -69 -71z"/>
<path d="M5293 1032 c-101 -36 -180 -109 -225 -208 -19 -41 -23 -66 -23 -154
0 -95 3 -111 28 -162 39 -79 104 -143 185 -181 61 -29 76 -32 162 -32 88 0
101 3 162 33 83 41 158 119 189 200 35 86 33 216 -3 295 -38 80 -114 158 -191
193 -82 37 -206 44 -284 16z"/>
</g>
</svg>
