<svg width="80" height="80" viewBox="0 0 80 80" fill="none" xmlns="http://www.w3.org/2000/svg">
<path fill-rule="evenodd" clip-rule="evenodd" d="M80 40C80 62.0914 62.0914 80 40 80C17.9086 80 0 62.0914 0 40C0 17.9086 17.9086 0 40 0C62.0914 0 80 17.9086 80 40ZM60 30C60 41.0457 51.0457 50 40 50C28.9543 50 20 41.0457 20 30C20 18.9543 28.9543 10 40 10C51.0457 10 60 18.9543 60 30ZM40 50V70C42.6264 70 45.2272 69.4827 47.6537 68.4776C50.0802 67.4725 52.285 65.9993 54.1421 64.1421C55.9993 62.285 57.4725 60.0802 58.4776 57.6537C59.4827 55.2272 60 52.6264 60 50H40Z" fill="#FFB01F"/>
</svg>
